<svg width="34" height="33" viewBox="0 0 34 33" fill="none" xmlns="http://www.w3.org/2000/svg">
<path fill-rule="evenodd" clip-rule="evenodd" d="M22.5307 3.97981C27.0785 8.52759 27.4181 15.7085 23.5837 20.7612L33.4647 30.6423L31.1227 32.9843L21.2665 23.1282C16.204 27.1442 8.87767 26.8627 4.26277 22.2478C-0.709717 17.2753 -0.651297 9.15485 4.39326 4.1103C9.43781 -0.934255 17.5582 -0.992676 22.5307 3.97981ZM21.5939 4.91663C26.0564 9.37912 26.004 16.6667 21.4768 21.1938C16.9496 25.721 9.66208 25.7734 5.19959 21.3109C0.737099 16.8484 0.789527 9.56089 5.31669 5.03373C9.84385 0.506567 17.1314 0.454139 21.5939 4.91663Z" fill="#2B4074"/>
</svg>
